<svg id="Layer_1" data-name="Layer 1" xmlns="http://www.w3.org/2000/svg" viewBox="0 0 99.99 99.99"><defs><style>.cls-1{fill:#fff;}</style></defs><title>amazon_icon</title><path class="cls-1" d="M51.06,131c12.67,11,26.56,21.24,45.23,21.24H97.4a73.54,73.54,0,0,0,35.75-10.84l0,0a34.34,34.34,0,0,0,4-2.78,3.16,3.16,0,0,0,1.35-2.48,3,3,0,0,0-3-2.88,3.31,3.31,0,0,0-1.49.34l-1.59.68-.77.32-1,.39h0a93.5,93.5,0,0,1-32.43,7.13H97.11c-16.39,0-29.78-7.6-43.27-15.1a3.09,3.09,0,0,0-1.43-.38,2.5,2.5,0,0,0-1.69.66,2.29,2.29,0,0,0-.71,1.68A2.63,2.63,0,0,0,51.06,131Z" transform="translate(-50.01 -52.22)"/><path class="cls-1" d="M150,127.1a4.67,4.67,0,0,0-.7-2.5l0-.06-.05-.07a3.36,3.36,0,0,0-1.33-.86,16.86,16.86,0,0,0-5.75-.82,26.64,26.64,0,0,0-5.54.58v-.12l-1.92.64,0,0-1.09.35v0a17.92,17.92,0,0,0-3.51,2,2.78,2.78,0,0,0-1.26,2.18,2.06,2.06,0,0,0,.74,1.57,2.28,2.28,0,0,0,1.48.5,1.51,1.51,0,0,0,.31,0h.17c.93-.21,2.31-.34,3.91-.56a39.33,39.33,0,0,1,4.09-.27,11.58,11.58,0,0,1,2.26.18,2.65,2.65,0,0,1,.6.19l.08,0a1.64,1.64,0,0,1,.05.55,18.7,18.7,0,0,1-1.05,4.94c-.59,1.92-1.33,3.84-1.81,5.12a2.54,2.54,0,0,0-.18,1,2.08,2.08,0,0,0,.64,1.55,2.15,2.15,0,0,0,1.46.58h0a3.11,3.11,0,0,0,1.83-.7c4.89-4.4,6.58-11.4,6.65-15.34l0-.63Z" transform="translate(-50.01 -52.22)"/><path class="cls-1" d="M105.36,80c-2.88.21-6.19.43-9.5.87-5.07.67-10.14,1.55-14.34,3.54-8.16,3.31-13.68,10.37-13.68,20.75,0,13,8.38,19.65,19,19.65a36.2,36.2,0,0,0,9-1.11c4.2-1.32,7.72-3.75,11.92-8.17,2.43,3.31,3.09,4.86,7.28,8.39a3.08,3.08,0,0,0,3.09-.22c2.65-2.21,7.28-6.18,9.7-8.39,1.12-.88.89-2.21.22-3.3-2.42-3.1-4.85-5.75-4.85-11.71V80.47c0-8.39.67-16.12-5.51-21.85-5.07-4.63-13-6.4-19.2-6.4H95.86c-11.24.66-23.16,5.52-25.81,19.43a2.06,2.06,0,0,0,1.77,2.64l12.35,1.55a2.81,2.81,0,0,0,2.2-2.43c1.11-4.86,5.08-7.28,9.49-7.73h.89A8.68,8.68,0,0,1,103.81,69c1.76,2.65,1.55,6.18,1.55,9.27Zm-2.43,26.26a10.76,10.76,0,0,1-7.07,5.75c-.44,0-1.1.21-1.77.21-4.85,0-7.72-3.76-7.72-9.27,0-7.07,4.2-10.38,9.49-11.92a43.5,43.5,0,0,1,9.5-.89v2.65C105.36,97.91,105.57,101.89,102.93,106.3Z" transform="translate(-50.01 -52.22)"/></svg>