<svg id="Layer_1" data-name="Layer 1" xmlns="http://www.w3.org/2000/svg" viewBox="0 0 496 496"><defs><style>.cls-1{fill:#fff;}</style></defs><title>arrow-circle-up-solid</title><path class="cls-1" d="M8,256C8,119,119,8,256,8S504,119,504,256,393,504,256,504,8,393,8,256Zm143.6,28.9L224,209.4V392a23.94242,23.94242,0,0,0,24,24h16a23.94242,23.94242,0,0,0,24-24V209.4l72.4,75.5a24.027,24.027,0,0,0,34.3.4l10.9-11a23.901,23.901,0,0,0,0-33.9L273,107.7a23.901,23.901,0,0,0-33.9,0L106.3,240.4a23.901,23.901,0,0,0,0,33.9l10.9,11A24.14527,24.14527,0,0,0,151.6,284.9Z" transform="translate(-8 -8)"/></svg>