<svg id="Layer_1" data-name="Layer 1" xmlns="http://www.w3.org/2000/svg" viewBox="0 0 166.78 130.22"><defs><style>.cls-1,.cls-6{fill:#3b469d;}.cls-2{font-size:29.7px;}.cls-2,.cls-5{fill:#fff;}.cls-2,.cls-6{font-family:VarelaRound-Regular, Varela Round;}.cls-3,.cls-4{fill:none;stroke:#fff;stroke-miterlimit:10;}.cls-3{stroke-width:3px;}.cls-4{stroke-width:0.75px;}.cls-6{font-size:32px;}.cls-7{letter-spacing:-0.01em;}.cls-8{letter-spacing:0em;}.cls-9{letter-spacing:-0.02em;}</style></defs><title>LOGO_name</title><rect id="background" class="cls-1" x="16.22" width="129.2" height="89.78" rx="20.62"/><text class="cls-2" transform="translate(63.6 64.22)">C</text><text class="cls-2" transform="translate(83.7 64.22)">OM</text><path id="house_path" class="cls-3" d="M68.32,69H42.13a7.48,7.48,0,0,1-7.54-7.54V35.24a7.38,7.38,0,0,1,.22-1.8s-4.35-.46-3.49-1.32L50,13.5s4.73-5,10.55,0L79.13,32.12s.88.94-3.49,1.32a6.08,6.08,0,0,1,.22,1.8v3"/><circle id="TM_boundary" class="cls-4" cx="137.79" cy="35.67" r="3.68"/><g id="TM"><path class="cls-5" d="M136.17,36.83a.14.14,0,0,1,0-.11v-2h-.7a.13.13,0,0,1-.1,0,.12.12,0,0,1,0-.1.13.13,0,0,1,0-.1.14.14,0,0,1,.1-.05h1.7a.16.16,0,0,1,.11.05.13.13,0,0,1,0,.1.12.12,0,0,1,0,.1.15.15,0,0,1-.11,0h-.69v2a.17.17,0,0,1-.16.16A.16.16,0,0,1,136.17,36.83Z"/><path class="cls-5" d="M137.7,36.83a.14.14,0,0,1,0-.11v-2a.25.25,0,0,1,.06-.16.23.23,0,0,1,.16-.06H138a.2.2,0,0,1,.13,0,.39.39,0,0,1,.08.1l.78,1.94.77-1.94a.28.28,0,0,1,.09-.1.16.16,0,0,1,.12,0h.11a.21.21,0,0,1,.16.06.26.26,0,0,1,.07.16v2a.14.14,0,0,1-.05.11.15.15,0,0,1-.22,0,.14.14,0,0,1-.05-.11V34.78l-.79,1.95a.18.18,0,0,1-.08.11.25.25,0,0,1-.27,0,.23.23,0,0,1-.08-.11L138,34.78v1.94a.14.14,0,0,1-.05.11.15.15,0,0,1-.22,0Z"/></g><text class="cls-6" transform="translate(0.13 119.67)"><tspan class="cls-7">H</tspan><tspan x="23.71" y="0">ous</tspan><tspan class="cls-8" x="78.02" y="0">e</tspan><tspan class="cls-9" x="95.97" y="0">C</tspan><tspan x="117.7" y="0">om</tspan></text></svg>