<svg id="LOGO" xmlns="http://www.w3.org/2000/svg" viewBox="0 0 129.2 89.78"><defs><style>.cls-1{fill:#3b469d;}.cls-2{font-size:29.7px;font-family:VarelaRound-Regular, Varela Round;}.cls-2,.cls-5{fill:#fff;}.cls-3,.cls-4{fill:none;stroke:#fff;stroke-miterlimit:10;}.cls-3{stroke-width:3px;}.cls-4{stroke-width:0.75px;}</style></defs><title>logo</title><rect id="background" class="cls-1" width="129.2" height="89.78" rx="20.62"/><text class="cls-2" transform="translate(47.38 64.22)">C</text><text class="cls-2" transform="translate(67.48 64.22)">OM</text><path id="house_path" class="cls-3" d="M52.1,69H25.91a7.48,7.48,0,0,1-7.54-7.54V35.24a7.38,7.38,0,0,1,.22-1.8S14.24,33,15.1,32.12L33.73,13.5s4.73-5,10.55,0L62.91,32.12s.88.94-3.49,1.32a5.71,5.71,0,0,1,.22,1.8v3"/><circle id="TM_boundary" class="cls-4" cx="121.57" cy="35.67" r="3.68"/><g id="TM"><path class="cls-5" d="M120,36.83a.14.14,0,0,1,0-.11v-2h-.7a.13.13,0,0,1-.1,0,.12.12,0,0,1,0-.1.13.13,0,0,1,0-.1.14.14,0,0,1,.1-.05h1.7a.14.14,0,0,1,.11.05.13.13,0,0,1,0,.1.12.12,0,0,1,0,.1.14.14,0,0,1-.11,0h-.69v2a.17.17,0,0,1-.16.16A.16.16,0,0,1,120,36.83Z"/><path class="cls-5" d="M121.48,36.83a.14.14,0,0,1,0-.11v-2a.21.21,0,0,1,.22-.22h.11a.2.2,0,0,1,.13,0,.25.25,0,0,1,.08.1l.78,1.94.77-1.94a.28.28,0,0,1,.09-.1.17.17,0,0,1,.12,0h.11a.21.21,0,0,1,.16.06.26.26,0,0,1,.07.16v2a.17.17,0,0,1-.16.16.16.16,0,0,1-.11-.05.14.14,0,0,1,0-.11V34.78L123,36.73a.24.24,0,0,1-.09.11.33.33,0,0,1-.13,0,.37.37,0,0,1-.14,0,.31.31,0,0,1-.08-.11l-.79-1.95v1.94a.14.14,0,0,1,0,.11.15.15,0,0,1-.22,0Z"/></g></svg>