<svg id="Layer_1" data-name="Layer 1" xmlns="http://www.w3.org/2000/svg" viewBox="0 0 66.35 82.94"><defs><style>.cls-1{fill:#fff;}</style></defs><title>pinterest_icon</title><path class="cls-1" d="M78.89,137.64a.66.66,0,0,0,1.17.27c.49-.61,6.76-8.1,8.89-15.59.6-2.12,3.46-13.09,3.46-13.09,1.71,3.16,6.71,5.93,12,5.93,15.82,0,26.56-14,26.56-32.64,0-14.14-12.37-27.29-31.17-27.29C76.44,55.23,64.65,71.45,64.65,85c0,8.19,3.21,15.48,10.08,18.21a1.7,1.7,0,0,0,2.46-1.2c.23-.83.77-2.94,1-3.83.33-1.19.2-1.61-.71-2.65a13.46,13.46,0,0,1-3.25-9.34c0-12,9.31-22.82,24.24-22.82,13.22,0,20.48,7.82,20.48,18.26,0,13.74-6.28,25.33-15.6,25.33-5.15,0-9-4.12-7.78-9.18,1.49-6,4.36-12.54,4.36-16.9,0-3.9-2.17-7.15-6.64-7.15C88,73.71,83.8,79,83.8,86a17.89,17.89,0,0,0,1.57,7.54S80,115.66,79,119.54C77.16,127.24,78.75,136.69,78.89,137.64Z" transform="translate(-64.65 -55.23)"/></svg>