<svg id="logo" xmlns="http://www.w3.org/2000/svg" viewBox="0 0 755.36 217"><defs><style>.cls-1{fill:#fff;}.cls-2{fill:#414141;}.cls-3{fill:#efefef;}.cls-4{fill:none;stroke:#000;stroke-linecap:round;stroke-miterlimit:10;stroke-width:2px;}</style></defs><title>thermosecure_logo-v2</title><g id="text_right"><g id="greyscale-2" data-name="greyscale"><path class="cls-1" d="M112.92,2.41c8.19,4.56,48,25.06,91.87,19.45l3.54-.45,0,3.57a331.2,331.2,0,0,1-11.14,81.86c-6.85,25.14-16.5,46.69-28.69,64.06-15.14,21.57-34.22,36.71-56.75,45L110,217l-1.51-.78C85.6,208,66.22,192.74,50.9,170.91,38.71,153.53,29.06,132,22.21,106.84A331.76,331.76,0,0,1,11.07,25l.06-3.57,3.54.45C58.53,27.47,98.35,7,106.53,2.41L110,0ZM109.73.54"/><path class="cls-2" d="M112.92,2.41c8.19,4.56,48,25.06,91.87,19.45l3.54-.45,0,3.57a331.2,331.2,0,0,1-11.14,81.86c-6.85,25.14-16.5,46.69-28.69,64.06-15.14,21.57-34.22,36.71-56.75,45L110,217l-1.51-.78C85.6,208,66.22,192.74,50.9,170.91,38.71,153.53,29.06,132,22.21,106.84A331.76,331.76,0,0,1,11.07,25l.06-3.57,3.54.45C58.53,27.47,98.35,7,106.53,2.41L110,0ZM109.73.54,17.48,28.6a329.35,329.35,0,0,0,10.93,76.71c10.34,37.87,32.84,86.62,81.32,104.57,48.52-18,71-66.79,81.36-104.71A329.45,329.45,0,0,0,202,28.6C157.14,33,118.29,12.8,109.75,8l0,0,0,0C102,12.32,69.6,29.23,30.39,29.23,26.16,29.23,21.85,29,17.48,28.6Z"/><path class="cls-3" d="M124.35,134.12V36.85c0-7.4-6.7-13.45-14.89-13.45S94.57,29.45,94.57,36.85v97.27c-11,4.95-18.62,15.22-18.62,27.1,0,16.71,15,30.25,33.51,30.25S143,177.93,143,161.22C143,149.34,135.38,139.07,124.35,134.12Z"/><path class="cls-2" d="M118.86,84.47v60.72c7,3.13,11.75,9.61,11.75,17.1,0,10.55-9.47,19.1-21.15,19.1s-21.15-8.55-21.15-19.1c0-7.49,4.79-14,11.75-17.1V97Z"/><line class="cls-4" x1="138.71" y1="52.12" x2="165.31" y2="52.12"/><line class="cls-4" x1="138.71" y1="82.97" x2="165.31" y2="82.97"/><line class="cls-4" x1="138.71" y1="113.82" x2="165.31" y2="113.82"/><path d="M265.58,56.51v70.4h-6.8V56.51h-11.9v-6h30.5v6Z"/><path d="M305.38,126.91V85.21l-14.3.4v41.3h-6.5V50.51h6.5v30.2l13.4-1.4a7.5,7.5,0,0,1,2-.2c3.6,0,5.4,1.7,5.4,5.3v42.5Z"/><path d="M343.48,126.91H327.87c-3.7,0-5.5-1.8-5.5-5.5V84.91c0-3.7,1.8-5.5,5.5-5.5h15.61c3.7,0,5.5,1.8,5.5,5.5V102l-2.2,2.3H328.67v17.2h14v-8.7H349v8.6C349,125.11,347.18,126.91,343.48,126.91Zm-.8-42.1h-14v14.3h14Z"/><path d="M378.17,95v-9.8l-12,.4v41.3h-6.5V79.41h6.5v1.3l11-1.4a7.14,7.14,0,0,1,2-.2c3.6,0,5.4,1.7,5.4,5.3V95Z"/><path d="M434.08,126.91V85.21l-14.21.4v41.3h-6.4V85.21l-14.2.4v41.3h-6.5V79.41h6.5v1.3l12.9-1.4c.9-.1,1.9-.2,2.4-.2a5.3,5.3,0,0,1,4,1.3l.4.5,14.21-1.6a7.5,7.5,0,0,1,2-.2c3.6,0,5.4,1.7,5.4,5.3v42.5Z"/><path d="M472.87,126.91h-16.3c-3.7,0-5.5-1.8-5.5-5.5V84.91c0-3.7,1.8-5.5,5.5-5.5h16.3c3.7,0,5.5,1.8,5.5,5.5v36.5C478.37,125.11,476.57,126.91,472.87,126.91Zm-1-41.8h-14.3v36.1h14.3Z"/><path d="M514.17,126.91H495a5.22,5.22,0,0,1-5.5-5.4v-19.4h6.8v18.8h16.5v-18.2l-21.1-25.5a7.68,7.68,0,0,1-2.2-5.8V55.91a5.22,5.22,0,0,1,5.5-5.4h19.2a5.14,5.14,0,0,1,5.4,5.4v17.8h-6.8V56.51h-16.5v16.1l21.2,25.5a7.52,7.52,0,0,1,2.1,5.7v17.7A5.14,5.14,0,0,1,514.17,126.91Z"/><path d="M551.87,126.91h-15.6c-3.7,0-5.5-1.8-5.5-5.5V84.91c0-3.7,1.8-5.5,5.5-5.5h15.6c3.7,0,5.5,1.8,5.5,5.5V102l-2.2,2.3h-18.1v17.2h14v-8.7h6.3v8.6C557.37,125.11,555.57,126.91,551.87,126.91Zm-.8-42.1h-14v14.3h14Z"/><path d="M589,126.91h-15.4c-3.7,0-5.5-1.8-5.5-5.5V84.91c0-3.7,1.8-5.5,5.5-5.5H589c3.7,0,5.5,1.8,5.5,5.5v9.5h-6.4v-9.3h-13.5v36.1h13.5v-10.6h6.4v10.8C594.47,125.11,592.67,126.91,589,126.91Z"/><path d="M625.77,126.91v-1.3l-13.1,1.4c-.9.1-1.8.2-2.4.2-3.6,0-5.3-1.7-5.3-5.3V79.41h6.4v41.7l14.4-.4V79.41h6.4v47.5Z"/><path d="M661.27,95v-9.8l-12,.4v41.3h-6.5V79.41h6.5v1.3l11-1.4a7.14,7.14,0,0,1,2-.2c3.6,0,5.4,1.7,5.4,5.3V95Z"/><path d="M676.17,69v-8.2h6.6V69Zm.1,57.9V79.41h6.4v47.5Z"/><path d="M701.57,126.91c-3.7,0-5.5-1.8-5.5-5.5V85.11h-5.7v-5.7h5.7V64.61h6.4v14.8h8.3v5.7h-8.3v36.1h8.3v5.7Z"/><path d="M730.57,144.91h-6.4l4.8-18.4-11.7-47.1H724l8.1,37.4,8.2-37.4h6.5Z"/><path class="cls-2" d="M267.25,166.52l4-24h2.13l-1.55,9.36c1.65-2.63,3.24-3.6,5.79-3.6,3.82,0,6.23,2.92,6.23,7.49a14.14,14.14,0,0,1-2.45,8,7.33,7.33,0,0,1-6.26,3.32,5.86,5.86,0,0,1-5.54-3.14l-1.26,2.63Zm3.49-8a11.94,11.94,0,0,0-.21,1.94,4.48,4.48,0,0,0,4.53,4.82c3.64,0,6.52-4.17,6.52-9.43,0-3.67-1.62-5.79-4.39-5.79-3,0-5.51,2.88-6.23,7.16Z"/><path class="cls-2" d="M290.29,168.43c-1.73,3.2-3.31,4.39-6,4.39a6.78,6.78,0,0,1-2.09-.32l.29-1.77a6.5,6.5,0,0,0,2,.33c1.59,0,2.88-1,4.1-3.21l.87-1.62-3.1-17.45h2.13L291,163.32l7.78-14.54h2.09Z"/><path class="cls-2" d="M324.53,166.52l2-12H314.41l-2,12h-2.33l4-24h2.34l-1.7,10.05h12.13l1.66-10.05h2.34l-4,24Z"/><path class="cls-2" d="M348.46,156a13.63,13.63,0,0,1-2,7.12,8,8,0,0,1-6.8,3.93c-4.25,0-6.88-3-6.88-7.74a13.91,13.91,0,0,1,2.06-7.09,8,8,0,0,1,6.94-3.93C345.84,148.27,348.46,151.3,348.46,156ZM335,159.54c0,3.56,1.72,5.72,4.64,5.72,3.85,0,6.62-4,6.62-9.64,0-3.46-1.8-5.58-4.71-5.58C337.77,150,335,154.1,335,159.54Z"/><path class="cls-2" d="M355.88,148.78,354,160a15.67,15.67,0,0,0-.18,2.09c0,2,1.08,3.13,3,3.13,3.13,0,6-2.91,6.66-6.73l1.65-9.75h2.13l-3,17.74h-2.13l.58-3.35c-1.66,2.74-3.42,3.86-6.05,3.86-3.13,0-5-1.84-5-4.79a14.38,14.38,0,0,1,.22-2.23l1.87-11.23Z"/><path class="cls-2" d="M370.75,161.2c.36,1.76.61,2.34,1.37,3a6.42,6.42,0,0,0,4,1.15c3.2,0,5.36-1.48,5.36-3.64,0-1.65-.93-2.55-3.2-3l-2.88-.54c-3.17-.62-4.79-2.24-4.79-4.76,0-3.13,2.77-5.14,7.09-5.14,4,0,6.37,1.69,6.73,4.71l-2,.43c-.25-2.23-1.87-3.38-4.75-3.38s-4.71,1.33-4.71,3.28c0,1.4.9,2.34,2.59,2.66l3.16.58c3.39.64,5.15,2.34,5.15,5,0,3.42-3.09,5.58-8.1,5.58-4.28,0-6.73-1.83-7.16-5.4Z"/><path class="cls-2" d="M388.89,157.7c0,.83,0,1.05,0,1.44,0,3.86,1.94,6.12,5.32,6.12a6.07,6.07,0,0,0,5.48-3.88l1.9.5a8.06,8.06,0,0,1-7.7,5.15c-4.36,0-7.24-3.06-7.24-7.67a12.9,12.9,0,0,1,2.34-7.78,8.15,8.15,0,0,1,6.92-3.31c4.32,0,7,2.63,7,6.95a14,14,0,0,1-.25,2.48ZM400.56,156c0-.54.07-.83.07-1.19a4.47,4.47,0,0,0-4.72-4.78,6.54,6.54,0,0,0-5,2.26,8.18,8.18,0,0,0-1.73,3.71Z"/><path class="cls-2" d="M418,154.9a5.06,5.06,0,0,0,0-.72,3.83,3.83,0,0,0-4-4.14c-3.74,0-6.48,4-6.48,9.32,0,3.71,1.66,5.9,4.46,5.9,2.31,0,4.22-1.8,5.12-4.86l1.94.47a11.25,11.25,0,0,1-1.48,3.17,6.72,6.72,0,0,1-5.65,3,5.8,5.8,0,0,1-5.47-3,9.05,9.05,0,0,1-1.19-4.71,13.3,13.3,0,0,1,2.34-7.7,7.77,7.77,0,0,1,6.55-3.39c3.71,0,5.91,2.27,6,6.16Z"/><path class="cls-2" d="M437.63,156a13.63,13.63,0,0,1-2.05,7.12,8,8,0,0,1-6.8,3.93c-4.25,0-6.88-3-6.88-7.74A13.91,13.91,0,0,1,424,152.2a8,8,0,0,1,6.94-3.93C435,148.27,437.63,151.3,437.63,156Zm-13.49,3.56c0,3.56,1.72,5.72,4.64,5.72,3.85,0,6.62-4,6.62-9.64,0-3.46-1.8-5.58-4.71-5.58C426.94,150,424.14,154.1,424.14,159.54Z"/><path class="cls-2" d="M450.38,166.52l1.87-11.26a14.15,14.15,0,0,0,.22-2.2c0-2-.83-3-2.52-3-2.74,0-5.37,2.92-6,6.7l-1.65,9.75h-2.13l3-17.74h1.87l-.54,3.34c1.62-2.66,3.38-3.85,5.76-3.85a4,4,0,0,1,4.28,4.14l0-.11a8.88,8.88,0,0,1,1.8-2.41,6,6,0,0,1,4-1.62c2.66,0,4.36,1.8,4.36,4.65a15.8,15.8,0,0,1-.22,2.37l-1.87,11.23h-2.16l1.91-11.26a17.29,17.29,0,0,0,.18-2.2c0-2-.83-3-2.52-3-2.7,0-5.33,2.92-5.94,6.63l-1.66,9.82Z"/><path class="cls-2" d="M471.15,156.19l2.05-12.27H469l.25-1.41h10.22l-.25,1.41h-4.29l-2,12.27Zm20.34,0,1.83-10.94-6.51,10.94h-1.48l-2.88-10.94-1.83,10.94H479l2.27-13.68h2.34L486.52,154l6.7-11.45h2.23l-2.31,13.68Z"/></g></g></svg>