<svg id="logo" xmlns="http://www.w3.org/2000/svg" viewBox="0 0 755.36 217"><defs><style>.cls-1{fill:#fff;}.cls-2,.cls-7{fill:#414141;}.cls-3{fill:#efefef;}.cls-4{fill:none;stroke:#000;stroke-linecap:round;stroke-miterlimit:10;stroke-width:2px;}.cls-5{font-size:100px;font-family:AgencyFB-Regular, AgencyFB;}.cls-6{letter-spacing:0.01em;}.cls-7{font-size:36px;font-family:FranklinGothicURW-LigIta, FranklinGothic URW;font-style:italic;}.cls-8{letter-spacing:-0.01em;}.cls-9{letter-spacing:0em;}</style></defs><title>thermosecure_logo-v1</title><g id="text_right"><g id="greyscale-2" data-name="greyscale"><path class="cls-1" d="M112.92,2.41c8.19,4.56,48,25.06,91.87,19.45l3.54-.45,0,3.57a331.2,331.2,0,0,1-11.14,81.86c-6.85,25.14-16.5,46.69-28.69,64.06-15.14,21.57-34.22,36.71-56.75,45L110,217l-1.51-.78C85.6,208,66.22,192.74,50.9,170.91,38.71,153.53,29.06,132,22.21,106.84A331.76,331.76,0,0,1,11.07,25l.06-3.57,3.54.45C58.53,27.47,98.35,7,106.53,2.41L110,0ZM109.73.54"/><path class="cls-2" d="M112.92,2.41c8.19,4.56,48,25.06,91.87,19.45l3.54-.45,0,3.57a331.2,331.2,0,0,1-11.14,81.86c-6.85,25.14-16.5,46.69-28.69,64.06-15.14,21.57-34.22,36.71-56.75,45L110,217l-1.51-.78C85.6,208,66.22,192.74,50.9,170.91,38.71,153.53,29.06,132,22.21,106.84A331.76,331.76,0,0,1,11.07,25l.06-3.57,3.54.45C58.53,27.47,98.35,7,106.53,2.41L110,0ZM109.73.54,17.48,28.6a329.35,329.35,0,0,0,10.93,76.71c10.34,37.87,32.84,86.62,81.32,104.57,48.52-18,71-66.79,81.36-104.71A329.45,329.45,0,0,0,202,28.6C157.14,33,118.29,12.8,109.75,8l0,0,0,0C102,12.32,69.6,29.23,30.39,29.23,26.16,29.23,21.85,29,17.48,28.6Z"/><path class="cls-3" d="M124.35,134.12V36.85c0-7.4-6.7-13.45-14.89-13.45S94.57,29.45,94.57,36.85v97.27c-11,4.95-18.62,15.22-18.62,27.1,0,16.71,15,30.25,33.51,30.25S143,177.93,143,161.22C143,149.34,135.38,139.07,124.35,134.12Z"/><path class="cls-2" d="M118.86,84.47v60.72c7,3.13,11.75,9.61,11.75,17.1,0,10.55-9.47,19.1-21.15,19.1s-21.15-8.55-21.15-19.1c0-7.49,4.79-14,11.75-17.1V97Z"/><line class="cls-4" x1="138.71" y1="52.12" x2="165.31" y2="52.12"/><line class="cls-4" x1="138.71" y1="82.97" x2="165.31" y2="82.97"/><line class="cls-4" x1="138.71" y1="113.82" x2="165.31" y2="113.82"/><text class="cls-5" transform="translate(244.98 126.91)">ThermoSecuri<tspan class="cls-6" x="443.39" y="0">t</tspan><tspan x="469.69" y="0">y</tspan></text><text class="cls-7" transform="translate(266.5 166.52)"><tspan class="cls-8">b</tspan><tspan x="18.61" y="0">y House</tspan><tspan class="cls-9" x="138.06" y="0">c</tspan><tspan x="154.69" y="0">om™</tspan></text></g></g></svg>