<svg id="logo" xmlns="http://www.w3.org/2000/svg" viewBox="0 0 510.38 408"><defs><style>.cls-1{fill:#fff;}.cls-2{fill:#efefef;}.cls-3{fill:#2d36b3;}.cls-4{fill:none;stroke:#fff;stroke-linecap:round;stroke-miterlimit:10;stroke-width:2px;}</style></defs><title>thermosecure_logo-v2</title><g id="text_under"><g id="knockout"><path class="cls-1" d="M258.9,6.8c9.51,5.29,55.74,29.11,106.68,22.59l4.11-.53.07,4.15a385.63,385.63,0,0,1-12.94,95.07c-7.95,29.19-19.16,54.22-33.32,74.39-17.57,25.05-39.74,42.63-65.9,52.27L255.5,256l-1.75-.9c-26.58-9.57-49.08-27.27-66.87-52.63-14.16-20.17-25.37-45.2-33.32-74.39A385.63,385.63,0,0,1,140.62,33l.07-4.15,4.11.53C195.74,35.9,242,12.09,251.48,6.8l4-2.8Zm-3.71-2.18"/><path class="cls-1" d="M258.9,6.8c9.51,5.29,55.74,29.11,106.68,22.59l4.11-.53.07,4.15a385.63,385.63,0,0,1-12.94,95.07c-7.95,29.19-19.16,54.22-33.32,74.39-17.57,25.05-39.74,42.63-65.9,52.27L255.5,256l-1.75-.9c-26.58-9.57-49.08-27.27-66.87-52.63-14.16-20.17-25.37-45.2-33.32-74.39A385.63,385.63,0,0,1,140.62,33l.07-4.15,4.11.53C195.74,35.9,242,12.09,251.48,6.8l4-2.8Zm-3.71-2.18M148.06,37.22c.21,12.06,1.78,49.11,12.69,89.07,12,44,38.14,100.59,94.44,121.44,56.35-20.87,82.48-77.56,94.48-121.6a382.18,382.18,0,0,0,12.65-88.91c-52.07,5.13-97.18-18.36-107.1-24h-.05c-8.95,5.06-46.58,24.69-92.11,24.69A149.9,149.9,0,0,1,148.06,37.22Z"/><path class="cls-2" d="M272.18,159.75v-113c0-8.59-7.79-15.61-17.3-15.61s-17.29,7-17.29,15.61v113C224.78,165.5,216,177.43,216,191.22c0,19.4,17.42,35.13,38.91,35.13s38.91-15.73,38.91-35.13C293.79,177.43,285,165.5,272.18,159.75Z"/><path class="cls-3" d="M265.8,102.09v70.52c8.08,3.63,13.64,11.16,13.64,19.86,0,12.25-11,22.17-24.56,22.17s-24.56-9.92-24.56-22.17c0-8.7,5.56-16.23,13.65-19.86v-56Z"/><line class="cls-4" x1="288.85" y1="64.53" x2="319.73" y2="64.53"/><line class="cls-4" x1="288.85" y1="100.35" x2="319.73" y2="100.35"/><line class="cls-4" x1="288.85" y1="136.18" x2="319.73" y2="136.18"/><path class="cls-1" d="M22.14,278.51v70.4h-6.8v-70.4H3.44v-6h30.5v6Z"/><path class="cls-1" d="M61.94,348.91v-41.7l-14.3.4v41.3H41.13v-76.4h6.51v30.2l13.4-1.4a7.5,7.5,0,0,1,2-.2c3.6,0,5.4,1.7,5.4,5.3v42.5Z"/><path class="cls-1" d="M100,348.91H84.43c-3.7,0-5.5-1.8-5.5-5.5v-36.5c0-3.7,1.8-5.5,5.5-5.5H100c3.7,0,5.5,1.8,5.5,5.5V324l-2.21,2.3H85.23v17.2h14v-8.7h6.3v8.6C105.54,347.11,103.74,348.91,100,348.91Zm-.8-42.1h-14v14.3h14Z"/><path class="cls-1" d="M134.73,317v-9.8l-12,.4v41.3h-6.5v-47.5h6.5v1.3l11-1.4a7.14,7.14,0,0,1,2-.2c3.6,0,5.4,1.7,5.4,5.3V317Z"/><path class="cls-1" d="M190.63,348.91v-41.7l-14.2.4v41.3H170v-41.7l-14.2.4v41.3h-6.5v-47.5h6.5v1.3l12.9-1.4c.9-.1,1.9-.2,2.4-.2a5.3,5.3,0,0,1,4,1.3l.4.5,14.2-1.6a7.57,7.57,0,0,1,2-.2c3.59,0,5.39,1.7,5.39,5.3v42.5Z"/><path class="cls-1" d="M229.43,348.91h-16.3c-3.7,0-5.5-1.8-5.5-5.5v-36.5c0-3.7,1.8-5.5,5.5-5.5h16.3c3.7,0,5.5,1.8,5.5,5.5v36.5C234.93,347.11,233.13,348.91,229.43,348.91Zm-1-41.8h-14.3v36.1h14.3Z"/><path class="cls-1" d="M270.73,348.91h-19.2a5.22,5.22,0,0,1-5.5-5.4v-19.4h6.8v18.8h16.5v-18.2l-21.1-25.5a7.68,7.68,0,0,1-2.2-5.8v-15.5a5.22,5.22,0,0,1,5.5-5.4h19.2a5.14,5.14,0,0,1,5.4,5.4v17.8h-6.8v-17.2h-16.5v16.1l21.2,25.5a7.52,7.52,0,0,1,2.1,5.7v17.7A5.14,5.14,0,0,1,270.73,348.91Z"/><path class="cls-1" d="M308.43,348.91h-15.6c-3.7,0-5.5-1.8-5.5-5.5v-36.5c0-3.7,1.8-5.5,5.5-5.5h15.6c3.7,0,5.5,1.8,5.5,5.5V324l-2.2,2.3h-18.1v17.2h14v-8.7h6.3v8.6C313.93,347.11,312.13,348.91,308.43,348.91Zm-.8-42.1h-14v14.3h14Z"/><path class="cls-1" d="M345.53,348.91h-15.4c-3.7,0-5.5-1.8-5.5-5.5v-36.5c0-3.7,1.8-5.5,5.5-5.5h15.4c3.7,0,5.5,1.8,5.5,5.5v9.5h-6.4v-9.3h-13.5v36.1h13.5v-10.6H351v10.8C351,347.11,349.23,348.91,345.53,348.91Z"/><path class="cls-1" d="M382.33,348.91v-1.3l-13.1,1.4c-.9.1-1.8.2-2.4.2-3.6,0-5.3-1.7-5.3-5.3v-42.5h6.4v41.7l14.4-.4v-41.3h6.4v47.5Z"/><path class="cls-1" d="M417.83,317v-9.8l-12,.4v41.3h-6.5v-47.5h6.5v1.3l11-1.4a7.14,7.14,0,0,1,2-.2c3.6,0,5.4,1.7,5.4,5.3V317Z"/><path class="cls-1" d="M432.73,291v-8.2h6.6V291Zm.1,57.9v-47.5h6.4v47.5Z"/><path class="cls-1" d="M458.13,348.91c-3.7,0-5.5-1.8-5.5-5.5v-36.3h-5.7v-5.7h5.7v-14.8H459v14.8h8.3v5.7H459v36.1h8.3v5.7Z"/><path class="cls-1" d="M487.13,366.91h-6.4l4.8-18.4-11.7-47.1h6.7l8.1,37.4,8.2-37.4h6.5Z"/><path class="cls-3" d="M23.81,388.52l4-24H30l-1.55,9.36c1.65-2.63,3.24-3.6,5.79-3.6,3.82,0,6.23,2.92,6.23,7.49A14.22,14.22,0,0,1,38,385.71,7.33,7.33,0,0,1,31.73,389a5.87,5.87,0,0,1-5.54-3.13l-1.26,2.62Zm3.49-8a11.94,11.94,0,0,0-.21,1.94,4.48,4.48,0,0,0,4.53,4.82c3.64,0,6.52-4.17,6.52-9.43,0-3.67-1.62-5.79-4.39-5.79-3,0-5.51,2.88-6.23,7.16Z"/><path class="cls-3" d="M46.85,390.43c-1.73,3.2-3.31,4.39-6,4.39a6.78,6.78,0,0,1-2.09-.32l.29-1.77a6.5,6.5,0,0,0,2,.33c1.58,0,2.88-1,4.1-3.21l.87-1.62L43,370.78h2.13l2.44,14.54,7.78-14.54H57.4Z"/><path class="cls-3" d="M81.08,388.52l2-11.95H71l-2,11.95H66.61l4-24H73l-1.7,10.05H83.42l1.66-10.05h2.34l-4,24Z"/><path class="cls-3" d="M105,378a13.63,13.63,0,0,1-2,7.12,8,8,0,0,1-6.8,3.93c-4.25,0-6.88-3-6.88-7.74a13.91,13.91,0,0,1,2.06-7.09,8,8,0,0,1,6.94-3.93C102.4,370.27,105,373.3,105,378Zm-13.49,3.56c0,3.56,1.72,5.72,4.64,5.72,3.85,0,6.62-4,6.62-9.64,0-3.46-1.8-5.58-4.71-5.58C94.33,372,91.53,376.1,91.53,381.54Z"/><path class="cls-3" d="M112.44,370.78,110.53,382a14.17,14.17,0,0,0-.18,2.09c0,2,1.08,3.13,3,3.13,3.13,0,6-2.91,6.66-6.73l1.65-9.75h2.13l-3,17.74H118.7l.58-3.35c-1.66,2.74-3.42,3.86-6,3.86-3.13,0-5-1.84-5-4.79a14.49,14.49,0,0,1,.22-2.23l1.87-11.23Z"/><path class="cls-3" d="M127.31,383.2c.36,1.76.61,2.33,1.37,2.95a6.42,6.42,0,0,0,4,1.15c3.2,0,5.36-1.48,5.36-3.64,0-1.65-.93-2.55-3.2-3l-2.88-.54c-3.17-.62-4.79-2.24-4.79-4.76,0-3.13,2.77-5.14,7.09-5.14,4,0,6.37,1.69,6.73,4.71l-2.05.43c-.25-2.23-1.87-3.38-4.75-3.38s-4.72,1.33-4.72,3.28c0,1.4.9,2.34,2.6,2.66l3.16.58c3.39.64,5.15,2.34,5.15,5,0,3.42-3.09,5.58-8.1,5.58-4.28,0-6.73-1.83-7.16-5.4Z"/><path class="cls-3" d="M145.45,379.7c0,.83,0,1.05,0,1.44,0,3.86,1.94,6.12,5.32,6.12a6,6,0,0,0,5.47-3.88l1.91.5a8.07,8.07,0,0,1-7.7,5.15c-4.36,0-7.24-3.06-7.24-7.67a12.9,12.9,0,0,1,2.34-7.78,8.15,8.15,0,0,1,6.92-3.31c4.31,0,7,2.63,7,7a14,14,0,0,1-.25,2.48ZM157.12,378c0-.54.07-.83.07-1.19a4.47,4.47,0,0,0-4.72-4.78,6.54,6.54,0,0,0-5,2.26,8.18,8.18,0,0,0-1.73,3.71Z"/><path class="cls-3" d="M174.57,376.9a5.06,5.06,0,0,0,0-.72,3.83,3.83,0,0,0-4-4.14c-3.75,0-6.48,4-6.48,9.32,0,3.71,1.66,5.9,4.46,5.9,2.31,0,4.21-1.8,5.11-4.86l2,.47a11.25,11.25,0,0,1-1.48,3.17,6.73,6.73,0,0,1-5.65,3,5.8,5.8,0,0,1-5.47-3,9.05,9.05,0,0,1-1.19-4.71,13.3,13.3,0,0,1,2.34-7.7,7.77,7.77,0,0,1,6.55-3.39c3.71,0,5.91,2.27,6,6.16Z"/><path class="cls-3" d="M194.19,378a13.63,13.63,0,0,1-2.05,7.12,8,8,0,0,1-6.8,3.93c-4.25,0-6.88-3-6.88-7.74a13.91,13.91,0,0,1,2.06-7.09,8,8,0,0,1,6.94-3.93C191.57,370.27,194.19,373.3,194.19,378Zm-13.49,3.56c0,3.56,1.72,5.72,4.64,5.72,3.85,0,6.62-4,6.62-9.64,0-3.46-1.8-5.58-4.71-5.58C183.5,372,180.7,376.1,180.7,381.54Z"/><path class="cls-3" d="M206.94,388.52l1.87-11.26a14.15,14.15,0,0,0,.22-2.2c0-2-.83-3-2.52-3-2.74,0-5.37,2.92-6,6.7l-1.65,9.75h-2.13l3-17.74h1.87l-.54,3.34c1.62-2.66,3.38-3.85,5.76-3.85a4,4,0,0,1,4.28,4.14l0-.11a8.88,8.88,0,0,1,1.8-2.41,6,6,0,0,1,4-1.62c2.66,0,4.36,1.8,4.36,4.65a15.8,15.8,0,0,1-.22,2.37l-1.87,11.23h-2.16L219,377.26a17.29,17.29,0,0,0,.18-2.2c0-2-.83-3-2.52-3-2.7,0-5.33,2.92-5.94,6.63l-1.66,9.82Z"/><path class="cls-3" d="M227.71,378.19l2-12.27h-4.25l.26-1.41H236l-.25,1.41h-4.29l-2,12.27Zm20.34,0,1.83-10.94-6.51,10.94h-1.48L239,367.25l-1.83,10.94h-1.62l2.27-13.68h2.34L243.08,376l6.7-11.45H252l-2.31,13.68Z"/></g></g></svg>