<svg id="logo" xmlns="http://www.w3.org/2000/svg" viewBox="0 0 510.38 408"><defs><style>.cls-1,.cls-5{fill:#fff;}.cls-2{fill:#efefef;}.cls-3,.cls-7{fill:#2d36b3;}.cls-4{fill:none;stroke:#fff;stroke-linecap:round;stroke-miterlimit:10;stroke-width:2px;}.cls-5{font-size:100px;font-family:AgencyFB-Regular, AgencyFB;}.cls-6{letter-spacing:0.01em;}.cls-7{font-size:36px;font-family:FranklinGothicURW-LigIta, FranklinGothic URW;font-style:italic;}.cls-8{letter-spacing:-0.01em;}.cls-9{letter-spacing:0em;}</style></defs><title>thermosecure_logo-v1</title><g id="text_under"><g id="knockout"><path class="cls-1" d="M258.9,6.8c9.51,5.29,55.74,29.11,106.68,22.59l4.11-.53.07,4.15a385.63,385.63,0,0,1-12.94,95.07c-7.95,29.19-19.16,54.22-33.32,74.39-17.57,25.05-39.74,42.63-65.9,52.27L255.5,256l-1.75-.9c-26.58-9.57-49.08-27.27-66.87-52.63-14.16-20.17-25.37-45.2-33.32-74.39A385.63,385.63,0,0,1,140.62,33l.07-4.15,4.11.53C195.74,35.9,242,12.09,251.48,6.8l4-2.8Zm-3.71-2.18"/><path class="cls-1" d="M258.9,6.8c9.51,5.29,55.74,29.11,106.68,22.59l4.11-.53.07,4.15a385.63,385.63,0,0,1-12.94,95.07c-7.95,29.19-19.16,54.22-33.32,74.39-17.57,25.05-39.74,42.63-65.9,52.27L255.5,256l-1.75-.9c-26.58-9.57-49.08-27.27-66.87-52.63-14.16-20.17-25.37-45.2-33.32-74.39A385.63,385.63,0,0,1,140.62,33l.07-4.15,4.11.53C195.74,35.9,242,12.09,251.48,6.8l4-2.8Zm-3.71-2.18M148.06,37.22c.21,12.06,1.78,49.11,12.69,89.07,12,44,38.14,100.59,94.44,121.44,56.35-20.87,82.48-77.56,94.48-121.6a382.18,382.18,0,0,0,12.65-88.91c-52.07,5.13-97.18-18.36-107.1-24h-.05c-8.95,5.06-46.58,24.69-92.11,24.69A149.9,149.9,0,0,1,148.06,37.22Z"/><path class="cls-2" d="M272.18,159.75v-113c0-8.59-7.79-15.61-17.3-15.61s-17.29,7-17.29,15.61v113C224.78,165.5,216,177.43,216,191.22c0,19.4,17.42,35.13,38.91,35.13s38.91-15.73,38.91-35.13C293.79,177.43,285,165.5,272.18,159.75Z"/><path class="cls-3" d="M265.8,102.09v70.52c8.08,3.63,13.64,11.16,13.64,19.86,0,12.25-11,22.17-24.56,22.17s-24.56-9.92-24.56-22.17c0-8.7,5.56-16.23,13.65-19.86v-56Z"/><line class="cls-4" x1="288.85" y1="64.53" x2="319.73" y2="64.53"/><line class="cls-4" x1="288.85" y1="100.35" x2="319.73" y2="100.35"/><line class="cls-4" x1="288.85" y1="136.18" x2="319.73" y2="136.18"/><text class="cls-5" transform="translate(1.54 348.91)">ThermoSecuri<tspan class="cls-6" x="443.39" y="0">t</tspan><tspan x="469.69" y="0">y</tspan></text><text class="cls-7" transform="translate(23.06 388.52)"><tspan class="cls-8">b</tspan><tspan x="18.61" y="0">y House</tspan><tspan class="cls-9" x="138.06" y="0">c</tspan><tspan x="154.69" y="0">om™</tspan></text></g></g></svg>