<svg id="logo" xmlns="http://www.w3.org/2000/svg" viewBox="0 0 755.36 217"><defs><style>.cls-1{fill:#fff;}.cls-2{fill:#efefef;}.cls-3{fill:#2d36b3;}.cls-4{fill:none;stroke:#fff;stroke-linecap:round;stroke-miterlimit:10;stroke-width:2px;}</style></defs><title>thermosecure_logo-v2</title><g id="text_right"><g id="knockout-2" data-name="knockout"><path class="cls-1" d="M112.32,2.41c8.19,4.56,48,25.06,91.87,19.45l3.54-.45.06,3.57a332.33,332.33,0,0,1-11.14,81.86C189.8,132,180.14,153.53,168,170.9c-15.13,21.57-34.22,36.71-56.74,45L109.4,217l-1.51-.78C85,208,65.63,192.74,50.31,170.91,38.12,153.53,28.46,132,21.62,106.84A331.2,331.2,0,0,1,10.48,25l0-3.57,3.54.45C57.94,27.47,97.75,7,105.94,2.41L109.4,0ZM109.13.54,16.88,28.6a329.35,329.35,0,0,0,10.93,76.71c10.34,37.87,32.84,86.62,81.32,104.57,48.53-18,71-66.79,81.36-104.71A329.45,329.45,0,0,0,201.38,28.6C156.54,33,117.7,12.8,109.15,8l0,0,0,0C101.41,12.32,69,29.23,29.8,29.23,25.56,29.23,21.25,29,16.88,28.6Z"/><path class="cls-2" d="M123.76,134.12V36.85c0-7.4-6.7-13.45-14.89-13.45S94,29.45,94,36.85v97.27c-11,4.95-18.61,15.22-18.61,27.1,0,16.71,15,30.25,33.51,30.25s33.5-13.54,33.5-30.25C142.37,149.34,134.79,139.07,123.76,134.12Z"/><path class="cls-3" d="M118.26,84.47v60.72c7,3.13,11.75,9.61,11.75,17.1,0,10.55-9.47,19.1-21.14,19.1s-21.15-8.55-21.15-19.1c0-7.49,4.79-14,11.75-17.1V97Z"/><line class="cls-4" x1="138.12" y1="52.12" x2="164.71" y2="52.12"/><line class="cls-4" x1="138.12" y1="82.97" x2="164.71" y2="82.97"/><line class="cls-4" x1="138.12" y1="113.82" x2="164.71" y2="113.82"/><path class="cls-1" d="M266,44.51v70.4h-6.8V44.51h-11.9v-6h30.5v6Z"/><path class="cls-1" d="M305.78,114.91V73.21l-14.3.4v41.3H285V38.51h6.5v30.2l13.4-1.4a7.5,7.5,0,0,1,2-.2c3.6,0,5.4,1.7,5.4,5.3v42.5Z"/><path class="cls-1" d="M343.88,114.91h-15.6c-3.7,0-5.5-1.8-5.5-5.5V72.91c0-3.7,1.8-5.5,5.5-5.5h15.6c3.7,0,5.5,1.8,5.5,5.5V90l-2.2,2.3h-18.1v17.2h14v-8.7h6.3v8.6C349.38,113.11,347.58,114.91,343.88,114.91Zm-.8-42.1h-14v14.3h14Z"/><path class="cls-1" d="M378.58,83v-9.8l-12,.4v41.3h-6.5V67.41h6.5v1.3l11-1.4a7.14,7.14,0,0,1,2-.2c3.6,0,5.4,1.7,5.4,5.3V83Z"/><path class="cls-1" d="M434.48,114.91V73.21l-14.2.4v41.3h-6.4V73.21l-14.2.4v41.3h-6.5V67.41h6.5v1.3l12.9-1.4c.9-.1,1.9-.2,2.4-.2a5.3,5.3,0,0,1,4,1.3l.4.5,14.2-1.6a7.5,7.5,0,0,1,2-.2c3.6,0,5.4,1.7,5.4,5.3v42.5Z"/><path class="cls-1" d="M473.28,114.91H457c-3.7,0-5.5-1.8-5.5-5.5V72.91c0-3.7,1.8-5.5,5.5-5.5h16.3c3.7,0,5.5,1.8,5.5,5.5v36.5C478.78,113.11,477,114.91,473.28,114.91Zm-1-41.8H458v36.1h14.3Z"/><path class="cls-1" d="M514.58,114.91h-19.2a5.22,5.22,0,0,1-5.5-5.4V90.11h6.8v18.8h16.5V90.71l-21.1-25.5a7.68,7.68,0,0,1-2.2-5.8V43.91a5.22,5.22,0,0,1,5.5-5.4h19.2a5.14,5.14,0,0,1,5.4,5.4v17.8h-6.8V44.51h-16.5v16.1l21.2,25.5a7.52,7.52,0,0,1,2.1,5.7v17.7A5.14,5.14,0,0,1,514.58,114.91Z"/><path class="cls-1" d="M552.28,114.91h-15.6c-3.7,0-5.5-1.8-5.5-5.5V72.91c0-3.7,1.8-5.5,5.5-5.5h15.6c3.7,0,5.5,1.8,5.5,5.5V90l-2.2,2.3h-18.1v17.2h14v-8.7h6.3v8.6C557.78,113.11,556,114.91,552.28,114.91Zm-.8-42.1h-14v14.3h14Z"/><path class="cls-1" d="M589.38,114.91H574c-3.7,0-5.5-1.8-5.5-5.5V72.91c0-3.7,1.8-5.5,5.5-5.5h15.4c3.7,0,5.5,1.8,5.5,5.5v9.5h-6.4v-9.3H575v36.1h13.5V98.61h6.4v10.8C594.88,113.11,593.08,114.91,589.38,114.91Z"/><path class="cls-1" d="M626.18,114.91v-1.3l-13.1,1.4c-.91.1-1.81.2-2.41.2-3.6,0-5.3-1.7-5.3-5.3V67.41h6.4v41.7l14.41-.4V67.41h6.4v47.5Z"/><path class="cls-1" d="M661.67,83v-9.8l-12,.4v41.3h-6.5V67.41h6.5v1.3l11-1.4a7.25,7.25,0,0,1,2-.2c3.6,0,5.4,1.7,5.4,5.3V83Z"/><path class="cls-1" d="M676.57,57v-8.2h6.6V57Zm.1,57.9V67.41h6.4v47.5Z"/><path class="cls-1" d="M702,114.91c-3.7,0-5.5-1.8-5.5-5.5V73.11h-5.7v-5.7h5.7V52.61h6.4v14.8h8.3v5.7h-8.3v36.1h8.3v5.7Z"/><path class="cls-1" d="M731,132.91h-6.4l4.8-18.4-11.7-47.1h6.7l8.1,37.4,8.2-37.4h6.5Z"/><path class="cls-3" d="M267.66,154.52l4-24h2.12l-1.55,9.36c1.66-2.63,3.24-3.6,5.8-3.6,3.81,0,6.23,2.92,6.23,7.49a14.22,14.22,0,0,1-2.45,8,7.33,7.33,0,0,1-6.26,3.32,5.89,5.89,0,0,1-5.55-3.14l-1.26,2.63Zm3.49-8a11.08,11.08,0,0,0-.22,1.94,4.48,4.48,0,0,0,4.54,4.82c3.63,0,6.51-4.17,6.51-9.43,0-3.67-1.62-5.79-4.39-5.79-3,0-5.51,2.88-6.23,7.16Z"/><path class="cls-3" d="M290.7,156.43c-1.73,3.2-3.32,4.39-6,4.39a6.78,6.78,0,0,1-2.09-.32l.29-1.77a6.6,6.6,0,0,0,2,.33c1.58,0,2.88-1,4.1-3.21l.86-1.62-3.09-17.45h2.12l2.45,14.54,7.77-14.54h2.09Z"/><path class="cls-3" d="M324.93,154.52l2-12H314.82l-2,12h-2.34l4-24h2.34l-1.69,10.05h12.13l1.66-10.05h2.34l-4,24Z"/><path class="cls-3" d="M348.87,144a13.72,13.72,0,0,1-2.05,7.12A8,8,0,0,1,340,155c-4.24,0-6.87-3-6.87-7.74a13.9,13.9,0,0,1,2.05-7.09,8,8,0,0,1,6.95-3.93C346.24,136.27,348.87,139.3,348.87,144Zm-13.5,3.56c0,3.56,1.73,5.72,4.64,5.72,3.86,0,6.63-4,6.63-9.64,0-3.46-1.8-5.58-4.72-5.58C338.18,138,335.37,142.1,335.37,147.54Z"/><path class="cls-3" d="M356.29,136.78,354.38,148a14.17,14.17,0,0,0-.18,2.09c0,2,1.08,3.13,3,3.13,3.13,0,6-2.91,6.66-6.73l1.66-9.75h2.12l-3,17.74h-2.12l.58-3.35c-1.66,2.74-3.42,3.86-6.05,3.86-3.13,0-5-1.84-5-4.79a14.23,14.23,0,0,1,.21-2.23l1.88-11.23Z"/><path class="cls-3" d="M371.15,149.2c.36,1.76.62,2.34,1.37,3a6.44,6.44,0,0,0,4,1.15c3.21,0,5.37-1.48,5.37-3.64,0-1.65-.94-2.55-3.21-3l-2.88-.54c-3.16-.62-4.78-2.24-4.78-4.76,0-3.13,2.77-5.14,7.09-5.14,4,0,6.37,1.69,6.73,4.71l-2.05.43c-.25-2.23-1.88-3.38-4.75-3.38s-4.72,1.33-4.72,3.28c0,1.4.9,2.34,2.59,2.66l3.17.58c3.38.64,5.15,2.34,5.15,5,0,3.42-3.1,5.58-8.1,5.58-4.29,0-6.73-1.83-7.17-5.4Z"/><path class="cls-3" d="M389.3,145.7c0,.83,0,1.05,0,1.44,0,3.86,1.95,6.12,5.33,6.12a6.06,6.06,0,0,0,5.47-3.88l1.91.5a8.07,8.07,0,0,1-7.7,5.15c-4.36,0-7.24-3.06-7.24-7.67a12.9,12.9,0,0,1,2.34-7.78,8.15,8.15,0,0,1,6.91-3.31c4.32,0,7,2.63,7,6.95a14,14,0,0,1-.25,2.48ZM401,144c0-.54.07-.83.07-1.19a4.47,4.47,0,0,0-4.71-4.78,6.56,6.56,0,0,0-5,2.26,8.17,8.17,0,0,0-1.72,3.71Z"/><path class="cls-3" d="M418.42,142.9a5.06,5.06,0,0,0,0-.72,3.83,3.83,0,0,0-4-4.14c-3.74,0-6.47,4-6.47,9.32,0,3.71,1.65,5.9,4.46,5.9,2.3,0,4.21-1.8,5.11-4.86l1.94.47A11.58,11.58,0,0,1,418,152a6.73,6.73,0,0,1-5.65,3,5.79,5.79,0,0,1-5.47-3,9,9,0,0,1-1.19-4.71,13.23,13.23,0,0,1,2.34-7.7,7.77,7.77,0,0,1,6.55-3.39c3.71,0,5.9,2.27,6,6.16Z"/><path class="cls-3" d="M438,144A13.72,13.72,0,0,1,436,151.1a8,8,0,0,1-6.81,3.93c-4.24,0-6.87-3-6.87-7.74a13.9,13.9,0,0,1,2.05-7.09,8,8,0,0,1,6.95-3.93C435.41,136.27,438,139.3,438,144Zm-13.5,3.56c0,3.56,1.73,5.72,4.64,5.72,3.86,0,6.63-4,6.63-9.64,0-3.46-1.8-5.58-4.72-5.58C427.35,138,424.54,142.1,424.54,147.54Z"/><path class="cls-3" d="M450.78,154.52l1.88-11.26a14,14,0,0,0,.21-2.2c0-2-.83-3-2.52-3-2.73,0-5.36,2.92-6,6.7l-1.66,9.75H440.6l3-17.74h1.88l-.54,3.34c1.62-2.66,3.38-3.85,5.76-3.85a4,4,0,0,1,4.28,4.14l0-.11a8.68,8.68,0,0,1,1.8-2.41,6,6,0,0,1,4-1.62c2.66,0,4.35,1.8,4.35,4.65a15.66,15.66,0,0,1-.21,2.37l-1.88,11.23h-2.16l1.91-11.26a15.64,15.64,0,0,0,.18-2.2c0-2-.83-3-2.52-3-2.7,0-5.33,2.92-5.94,6.63l-1.65,9.82Z"/><path class="cls-3" d="M471.56,144.19l2.05-12.27h-4.25l.25-1.41h10.23l-.26,1.41H475.3l-2,12.27Zm20.33,0,1.84-10.94-6.52,10.94h-1.47l-2.88-10.94L481,144.19H479.4l2.27-13.68H484L486.93,142l6.69-11.45h2.23l-2.3,13.68Z"/></g></g></svg>