<svg id="logo" xmlns="http://www.w3.org/2000/svg" viewBox="0 0 222 217"><defs><style>.cls-1{fill:#414141;}.cls-2{fill:#efefef;}.cls-3{fill:none;stroke:#000;stroke-linecap:round;stroke-miterlimit:10;stroke-width:2px;}</style></defs><title>thermosecure_logo-v1</title><g id="icons"><g id="greyscale-3" data-name="greyscale"><path class="cls-1" d="M116.94,2.41c8.19,4.56,48,25.06,91.87,19.45l3.54-.45L212.4,25a331.46,331.46,0,0,1-11.13,81.86c-6.85,25.14-16.51,46.69-28.7,64.06-15.13,21.57-34.22,36.71-56.74,45L114,217l-1.51-.78C89.62,208,70.25,192.74,54.93,170.91,42.74,153.53,33.08,132,26.23,106.84A331.46,331.46,0,0,1,15.1,25l.05-3.57,3.54.45C62.56,27.47,102.37,7,110.56,2.41L114,0ZM113.75.54,21.5,28.6a329.35,329.35,0,0,0,10.93,76.71c10.34,37.87,32.84,86.62,81.32,104.57,48.52-18,71-66.79,81.36-104.71A329.45,329.45,0,0,0,206,28.6C161.16,33,122.32,12.8,113.77,8l0,0,0,0c-7.7,4.36-40.1,21.27-79.32,21.27C30.18,29.23,25.87,29,21.5,28.6Z"/><path class="cls-2" d="M128.38,134.12V36.85c0-7.4-6.71-13.45-14.9-13.45S98.59,29.45,98.59,36.85v97.27c-11,4.95-18.61,15.22-18.61,27.1,0,16.71,15,30.25,33.5,30.25S147,177.93,147,161.22C147,149.34,139.41,139.07,128.38,134.12Z"/><path class="cls-1" d="M122.88,84.47v60.72c7,3.13,11.75,9.61,11.75,17.1,0,10.55-9.47,19.1-21.15,19.1s-21.14-8.55-21.14-19.1c0-7.49,4.78-14,11.75-17.1V97Z"/><line class="cls-3" x1="142.74" y1="52.12" x2="169.33" y2="52.12"/><line class="cls-3" x1="142.74" y1="82.97" x2="169.33" y2="82.97"/><line class="cls-3" x1="142.74" y1="113.82" x2="169.33" y2="113.82"/></g></g></svg>