<svg id="logo" xmlns="http://www.w3.org/2000/svg" viewBox="0 0 755.36 217"><defs><style>.cls-1,.cls-5{fill:#fff;}.cls-2{fill:#efefef;}.cls-3,.cls-7{fill:#2d36b3;}.cls-4{fill:none;stroke:#fff;stroke-linecap:round;stroke-miterlimit:10;stroke-width:2px;}.cls-5{font-size:100px;font-family:AgencyFB-Regular, AgencyFB;}.cls-6{letter-spacing:0.01em;}.cls-7{font-size:36px;font-family:FranklinGothicURW-LigIta, FranklinGothic URW;font-style:italic;}.cls-8{letter-spacing:-0.01em;}.cls-9{letter-spacing:0em;}</style></defs><title>thermosecure_logo-v1</title><g id="text_right"><g id="knockout-2" data-name="knockout"><path class="cls-1" d="M112.32,2.41c8.19,4.56,48,25.06,91.87,19.45l3.54-.45.06,3.57a332.33,332.33,0,0,1-11.14,81.86C189.8,132,180.14,153.53,168,170.9c-15.13,21.57-34.22,36.71-56.74,45L109.4,217l-1.51-.78C85,208,65.63,192.74,50.31,170.91,38.12,153.53,28.46,132,21.62,106.84A331.2,331.2,0,0,1,10.48,25l0-3.57,3.54.45C57.94,27.47,97.75,7,105.94,2.41L109.4,0ZM109.13.54,16.88,28.6a329.35,329.35,0,0,0,10.93,76.71c10.34,37.87,32.84,86.62,81.32,104.57,48.53-18,71-66.79,81.36-104.71A329.45,329.45,0,0,0,201.38,28.6C156.54,33,117.7,12.8,109.15,8l0,0,0,0C101.41,12.32,69,29.23,29.8,29.23,25.56,29.23,21.25,29,16.88,28.6Z"/><path class="cls-2" d="M123.76,134.12V36.85c0-7.4-6.7-13.45-14.89-13.45S94,29.45,94,36.85v97.27c-11,4.95-18.61,15.22-18.61,27.1,0,16.71,15,30.25,33.51,30.25s33.5-13.54,33.5-30.25C142.37,149.34,134.79,139.07,123.76,134.12Z"/><path class="cls-3" d="M118.26,84.47v60.72c7,3.13,11.75,9.61,11.75,17.1,0,10.55-9.47,19.1-21.14,19.1s-21.15-8.55-21.15-19.1c0-7.49,4.79-14,11.75-17.1V97Z"/><line class="cls-4" x1="138.12" y1="52.12" x2="164.71" y2="52.12"/><line class="cls-4" x1="138.12" y1="82.97" x2="164.71" y2="82.97"/><line class="cls-4" x1="138.12" y1="113.82" x2="164.71" y2="113.82"/><text class="cls-5" transform="translate(245.38 114.91)">ThermoSecuri<tspan class="cls-6" x="443.39" y="0">t</tspan><tspan x="469.69" y="0">y</tspan></text><text class="cls-7" transform="translate(266.9 154.52)"><tspan class="cls-8">b</tspan><tspan x="18.61" y="0">y House</tspan><tspan class="cls-9" x="138.06" y="0">c</tspan><tspan x="154.69" y="0">om™</tspan></text></g></g></svg>