<svg id="Layer_1" data-name="Layer 1" xmlns="http://www.w3.org/2000/svg" viewBox="0 0 57.93 46.34"><defs><style>.cls-1{fill:#fff;}</style></defs><title>twitter_icon</title><path class="cls-1" d="M127,81.37a24.07,24.07,0,0,1-7.55,2.85,12,12,0,0,0-8.68-3.7,11.79,11.79,0,0,0-11.88,11.7,11.66,11.66,0,0,0,.31,2.66A33.9,33.9,0,0,1,74.7,82.66a11.55,11.55,0,0,0-1.61,5.88,11.68,11.68,0,0,0,5.29,9.74A12.06,12.06,0,0,1,73,96.82V97a11.75,11.75,0,0,0,9.53,11.47,12.11,12.11,0,0,1-5.37.2,11.9,11.9,0,0,0,11.11,8.13,24.43,24.43,0,0,1-17.6,4.84,34,34,0,0,0,18.22,5.26c21.86,0,33.81-17.83,33.81-33.29,0-.5,0-1,0-1.51A23.84,23.84,0,0,0,128.59,86a23.89,23.89,0,0,1-6.82,1.85A11.8,11.8,0,0,0,127,81.37Z" transform="translate(-70.67 -80.52)"/></svg>